<svg width="164" height="24" viewBox="0 0 164 24" fill="none" xmlns="http://www.w3.org/2000/svg">
<path d="M2.16 19V1.48H7.752L15.12 16.168H15.912L15.432 16.6V1.48H18.648V19H13.032L5.664 4.312H4.848L5.328 3.88V19H2.16ZM26.4285 19V4H29.8365V19H26.4285ZM21.3645 4.48V1.48H34.9005V4.48H21.3645ZM40.5489 13.624V10.672H43.9569C44.6449 10.672 45.2209 10.536 45.6849 10.264C46.1649 9.992 46.5249 9.616 46.7649 9.136C47.0209 8.656 47.1489 8.104 47.1489 7.48C47.1489 6.856 47.0209 6.304 46.7649 5.824C46.5249 5.344 46.1649 4.976 45.6849 4.72C45.2209 4.448 44.6449 4.312 43.9569 4.312H40.5489V1.36H43.6689C45.1409 1.36 46.3889 1.6 47.4129 2.08C48.4529 2.56 49.2449 3.248 49.7889 4.144C50.3329 5.024 50.6049 6.072 50.6049 7.288V7.672C50.6049 8.888 50.3329 9.944 49.7889 10.84C49.2449 11.72 48.4529 12.408 47.4129 12.904C46.3889 13.384 45.1409 13.624 43.6689 13.624H40.5489ZM37.6209 19V1.36H41.0289V19H37.6209ZM50.4242 19L56.4002 1.48H61.9682L68.1122 19H64.6082L59.4002 3.808L60.6242 4.336H57.6242L58.8722 3.808L53.8322 19H50.4242ZM54.6002 14.344L55.6802 11.464H62.7842L63.8402 14.344H54.6002ZM70.7147 19V1.36H74.1227V19H70.7147ZM81.4187 19L76.0427 11.368H79.8587L85.4027 19H81.4187ZM73.1147 13.144V10.384H77.5787C78.2027 10.384 78.7387 10.256 79.1867 10C79.6507 9.744 80.0107 9.384 80.2667 8.92C80.5227 8.456 80.6507 7.928 80.6507 7.336C80.6507 6.728 80.5227 6.192 80.2667 5.728C80.0107 5.264 79.6507 4.904 79.1867 4.648C78.7387 4.392 78.2027 4.264 77.5787 4.264H73.1147V1.36H77.2187C78.6267 1.36 79.8427 1.568 80.8667 1.984C81.9067 2.4 82.7067 3.032 83.2667 3.88C83.8267 4.728 84.1067 5.792 84.1067 7.072V7.456C84.1067 8.752 83.8187 9.816 83.2427 10.648C82.6827 11.48 81.8907 12.104 80.8667 12.52C79.8427 12.936 78.6267 13.144 77.2187 13.144H73.1147ZM95.6498 19.456C94.0658 19.456 92.7058 19.176 91.5698 18.616C90.4338 18.056 89.5058 17.328 88.7858 16.432C88.0818 15.536 87.5618 14.56 87.2258 13.504C86.8898 12.448 86.7218 11.432 86.7218 10.456V9.928C86.7218 8.84 86.8898 7.768 87.2258 6.712C87.5778 5.656 88.1138 4.696 88.8338 3.832C89.5538 2.968 90.4658 2.28 91.5698 1.768C92.6898 1.24 94.0098 0.975999 95.5298 0.975999C97.1138 0.975999 98.4898 1.264 99.6578 1.84C100.842 2.4 101.786 3.2 102.49 4.24C103.194 5.264 103.618 6.464 103.762 7.84H100.33C100.202 7.04 99.9138 6.368 99.4658 5.824C99.0338 5.264 98.4818 4.848 97.8098 4.576C97.1378 4.288 96.3778 4.144 95.5298 4.144C94.6658 4.144 93.8978 4.296 93.2258 4.6C92.5538 4.888 91.9938 5.304 91.5458 5.848C91.0978 6.392 90.7538 7.032 90.5138 7.768C90.2898 8.504 90.1778 9.32 90.1778 10.216C90.1778 11.08 90.2898 11.88 90.5138 12.616C90.7538 13.352 91.1058 14 91.5698 14.56C92.0338 15.104 92.6018 15.528 93.2738 15.832C93.9618 16.136 94.7538 16.288 95.6498 16.288C96.9618 16.288 98.0658 15.968 98.9618 15.328C99.8738 14.672 100.426 13.76 100.618 12.592H104.05C103.89 13.84 103.466 14.984 102.778 16.024C102.09 17.064 101.146 17.896 99.9458 18.52C98.7458 19.144 97.3138 19.456 95.6498 19.456ZM118.422 19V1.48H121.83V19H118.422ZM106.926 19V1.48H110.334V19H106.926ZM109.71 11.728V8.728H119.046V11.728H109.71ZM126.192 19V1.48H129.6V19H126.192ZM137.909 19L132.317 1.48H135.845L140.477 16.648L139.469 16.168H142.061L141.029 16.648L145.301 1.48H148.709L143.525 19H137.909ZM151.457 19V1.48H154.793V19H151.457ZM154.313 19V16.12H162.257V19H154.313ZM154.313 11.536V8.656H161.633V11.536H154.313ZM154.313 4.36V1.48H162.065V4.36H154.313Z" fill="black"/>
<path d="M0 22H163.601V23.2H0V22Z" fill="black"/>
</svg>
